<svg xmlns="http://www.w3.org/2000/svg" viewBox="0 0 64 64">
	<title>CarMarkt</title>
	<rect width="64" height="64" rx="12" fill="#15120e" />
	<g fill="#b10b16" transform="matrix(.39 0 0 .39 -105.4 19.5)">
		<circle cx="408.47" cy="46.26" r="10.5" />
		<circle cx="315.72" cy="46.26" r="10.5" />
		<path d="M420.8,45.26a12.37,12.37,0,0,0-24.7,1v1.58s-16.39.53-17.11.53c-35.89.47-50.56.52-50.89.47.06-.5,0-2.07,0-2.58a12.38,12.38,0,1,0-24.75,0c0,.5-.25,2.58-.25,2.58s-18,0-19.27-.69c-.47-.25-1.81-.14-2.87-1.22-.48-.49-1.68-.25-2.16-.5s-.72-.72-.71-1.68a4.55,4.55,0,0,1,1-2.4c.24-.24.12-16.58.37-18s1-2.64,1-3.12-.47-.48-.71-.72-.23-1.21-.23-1.69,1-.47,1-.47S282,8.49,282.21,7.77s1.71-4.31,3.16-5,8.9-2.1,12.75-2.31S332.24,0,337.29,0s19.7.63,23,1.85S368,5.27,368.72,6l12.41,12.59a6.54,6.54,0,0,0,1.67,1c1.68.49,14.65,1.31,18.49,1.58s11.77,1,13,1.77,2.62,3.87,2.62,3.87,5.52,1,6.24,1.48,3.1,2.67,3.09,4.35-.05,6.73-.05,6.73,1.44.49,1.43,1.21a11.68,11.68,0,0,0,0,2.89,5,5,0,0,1,.46,2.64c-.24.48-.73,1.44-1.45,1.43a32.26,32.26,0,0,1-5.67-.67" />
	</g>
</svg>
