<svg xmlns="http://www.w3.org/2000/svg" viewBox="0 0 431.6 129.95"><defs></defs><title>logo-final-light</title><rect class="a" x="273.6" y="56.87" width="158" height="9.94"></rect><line class="b" x1="377.6" y1="128.84" x2="377.6" y2="60.34"></line><line class="c" x1="329.1" y1="128.84" x2="329.1" y2="62.34"></line><path class="d" d="M46.3,96H33.41c-.58-5.55-4-8.79-9.43-8.79-6.77,0-11,6-11,16s4.18,16,10.8,16c5.4,0,8.93-3.31,9.65-9.07h13c-1,12.74-9.65,19.87-22.69,19.87C9.07,130,0,119.8,0,103.17S9.14,76.38,24,76.38C37.23,76.38,45.8,84,46.3,96Z"></path><path class="d" d="M63.72,117.93,60.41,128.8H47.3L64.8,77.53H81.15L98.64,128.8H85.54L82.3,117.93Zm14.47-13.68C76.32,98.13,74.52,91.79,73,85.6h-.14c-1.52,6.19-3.24,12.53-5,18.65l-1,3.45H79.27Z"></path><path class="d" d="M123.55,77.53c13.11,0,18.87,5.33,18.87,14.62A12.49,12.49,0,0,1,133,104.68v.14c3.67,1.3,5.47,3.67,7.85,10.3l5,13.68H132.41l-3.89-11.59c-1.8-5.26-3.81-7.13-8.64-7.13H115.2V128.8H102.75V77.53Zm-8.35,23.12H122c5.76,0,8.07-2.6,8.07-6.92,0-4.53-3.1-6.55-8.57-6.55H115.2Z"></path><path class="a" d="M202.33,128.8V103.74c0-6.33.14-12.67.43-18.94h-.15c-1.44,6.2-3.17,12.53-4.89,18.65l-7.28,25.35H175.68l-7.27-25.35C166.68,97.33,165,91,163.51,84.8h-.14c.29,6.27.43,12.61.43,18.94V128.8H152.06V77.53H172l6.55,22.76c1.73,6.26,3.24,12.6,4.47,18.86h.14c1.15-6.26,2.67-12.6,4.39-18.86l6.63-22.76h19.87V128.8Z"></path><path class="a" d="M234.58,117.93l-3.31,10.87H218.16l17.5-51.27H252l17.5,51.27H256.4l-3.25-10.87Zm14.47-13.68c-1.87-6.12-3.67-12.46-5.18-18.65h-.15c-1.51,6.19-3.24,12.53-5,18.65l-1,3.45h12.46Z"></path><path class="a" d="M294.41,77.53c13.11,0,18.87,5.33,18.87,14.62a12.49,12.49,0,0,1-9.44,12.53v.14c3.68,1.3,5.48,3.67,7.85,10.3l5,13.68H303.27l-3.89-11.59c-1.8-5.26-3.82-7.13-8.64-7.13h-4.68V128.8H273.6V77.53Zm-8.35,23.12h6.84c5.76,0,8.06-2.6,8.06-6.92,0-4.53-3.09-6.55-8.57-6.55h-6.33Z"></path><path class="a" d="M366.84,128.8H351.15l-15.63-23.62h-.14V128.8H322.92V77.53h12.46V99.64h.14l15.05-22.11h14.91L346.83,101.8Z"></path><circle class="a" cx="408.47" cy="46.26" r="10.5"></circle><circle class="a" cx="315.72" cy="46.26" r="10.5"></circle><path class="a" d="M420.8,45.26a12.37,12.37,0,0,0-24.7,1v1.58s-16.39.53-17.11.53c-35.89.47-50.56.52-50.89.47.06-.5,0-2.07,0-2.58a12.38,12.38,0,1,0-24.75,0c0,.5-.25,2.58-.25,2.58s-18,0-19.27-.69c-.47-.25-1.81-.14-2.87-1.22-.48-.49-1.68-.25-2.16-.5s-.72-.72-.71-1.68a4.55,4.55,0,0,1,1-2.4c.24-.24.12-16.58.37-18s1-2.64,1-3.12-.47-.48-.71-.72-.23-1.21-.23-1.69,1-.47,1-.47S282,8.49,282.21,7.77s1.71-4.31,3.16-5,8.9-2.1,12.75-2.31S332.24,0,337.29,0s19.7.63,23,1.85S368,5.27,368.72,6l12.41,12.59a6.54,6.54,0,0,0,1.67,1c1.68.49,14.65,1.31,18.49,1.58s11.77,1,13,1.77,2.62,3.87,2.62,3.87,5.52,1,6.24,1.48,3.1,2.67,3.09,4.35-.05,6.73-.05,6.73,1.44.49,1.43,1.21a11.68,11.68,0,0,0,0,2.89,5,5,0,0,1,.46,2.64c-.24.48-.73,1.44-1.45,1.43a32.26,32.26,0,0,1-5.67-.67"></path></svg>